<svg xmlns="http://www.w3.org/2000/svg" viewBox="0 0 800 400">
    <!-- Background with Minecraft-style sky gradient -->
    <defs>
        <linearGradient id="skyGradient" x1="0%" y1="0%" x2="0%" y2="100%">
            <stop offset="0%" style="stop-color:#69A7DD;stop-opacity:1" />
            <stop offset="100%" style="stop-color:#BAD4EA;stop-opacity:1" />
        </linearGradient>

        <!-- Block patterns -->
        <pattern id="grassBlock" patternUnits="userSpaceOnUse" width="40" height="40">
            <rect width="40" height="30" fill="#8B6B4A"/>
            <rect width="40" height="10" y="0" fill="#567D46"/>
            <rect width="40" height="2" y="30" fill="#6B563B" opacity="0.5"/>
        </pattern>

        <pattern id="stoneBlock" patternUnits="userSpaceOnUse" width="40" height="40">
            <rect width="40" height="40" fill="#848484"/>
            <rect width="40" height="2" y="38" fill="#6B6B6B"/>
            <circle cx="20" cy="20" r="8" fill="#757575"/>
        </pattern>
    </defs>

    <!-- Sky background -->
    <rect width="800" height="400" fill="url(#skyGradient)"/>

    <!-- Background clouds (Minecraft style) -->
    <g id="clouds" fill="#FFFFFF" opacity="0.8">
        <g transform="translate(100,100)">
            <rect width="60" height="20"/>
            <rect x="20" y="-10" width="30" height="20"/>
        </g>
        <g transform="translate(600,80)">
            <rect width="80" height="20"/>
            <rect x="30" y="-10" width="40" height="20"/>
        </g>
        <g transform="translate(300,150)">
            <rect width="50" height="20"/>
            <rect x="10" y="-10" width="30" height="20"/>
        </g>
    </g>

    <!-- Floating Minecraft Islands -->
    <g id="minecraft-islands">
        <!-- Small starter island -->
        <g transform="translate(100,300)">
            <rect width="80" height="40" fill="url(#grassBlock)"/>
            <rect x="20" y="-20" width="40" height="40" fill="url(#grassBlock)"/>
            <!-- Simple house -->
            <rect x="25" y="-45" width="30" height="25" fill="#866A4B"/>
            <rect x="35" y="-35" width="10" height="10" fill="#7B95A8"/>
            <!-- Roof -->
            <polygon points="20,-45 40,-60 60,-45" fill="#614B32"/>
        </g>

        <!-- Medium island -->
        <g transform="translate(300,250)">
            <rect width="120" height="40" fill="url(#grassBlock)"/>
            <rect x="20" y="-20" width="80" height="40" fill="url(#grassBlock)"/>
            <!-- Village-style building -->
            <rect x="30" y="-60" width="60" height="40" fill="#866A4B"/>
            <rect x="45" y="-40" width="15" height="20" fill="#7B95A8"/>
            <rect x="70" y="-40" width="15" height="20" fill="#7B95A8"/>
            <polygon points="25,-60 60,-85 95,-60" fill="#614B32"/>
            <!-- Farm plots -->
            <rect x="40" y="-22" width="10" height="10" fill="#7B4F18"/>
            <rect x="55" y="-22" width="10" height="10" fill="#7B4F18"/>
        </g>

        <!-- Large island -->
        <g transform="translate(550,180)">
            <rect width="160" height="40" fill="url(#grassBlock)"/>
            <rect x="20" y="-20" width="120" height="40" fill="url(#grassBlock)"/>
            <rect x="40" y="-40" width="80" height="40" fill="url(#grassBlock)"/>
            <!-- Castle complex -->
            <rect x="50" y="-80" width="60" height="40" fill="url(#stoneBlock)"/>
            <!-- Towers -->
            <rect x="40" y="-100" width="20" height="60" fill="url(#stoneBlock)"/>
            <rect x="100" y="-100" width="20" height="60" fill="url(#stoneBlock)"/>
            <!-- Battlements -->
            <g fill="#757575">
                <rect x="35" y="-105" width="30" height="10"/>
                <rect x="95" y="-105" width="30" height="10"/>
                <rect x="40" y="-110" width="10" height="15"/>
                <rect x="55" y="-110" width="10" height="15"/>
                <rect x="100" y="-110" width="10" height="15"/>
                <rect x="115" y="-110" width="10" height="15"/>
            </g>
        </g>
    </g>

    <!-- Connecting particle effects -->
    <g stroke="#FFFFFF" stroke-width="2" opacity="0.6">
        <path d="M180 280 Q240 265 300 260" stroke-dasharray="4,6"/>
        <path d="M420 240 Q485 210 550 200" stroke-dasharray="4,6"/>
    </g>

    <!-- Minecraft-style Geese Formation -->
    <!-- Lead Goose -->
    <g transform="translate(400, 150)">
        <!-- Body -->
        <rect x="0" y="0" width="20" height="12" fill="#EFEFEF"/>
        <!-- Head -->
        <rect x="15" y="-5" width="10" height="10" fill="#EFEFEF"/>
        <!-- Wing -->
        <rect x="5" y="-5" width="8" height="8" fill="#DEDEDE"/>
    </g>

    <!-- Following Geese (smaller) -->
    <g transform="translate(350, 190)">
        <rect x="0" y="0" width="16" height="10" fill="#EFEFEF"/>
        <rect x="12" y="-4" width="8" height="8" fill="#EFEFEF"/>
        <rect x="4" y="-4" width="6" height="6" fill="#DEDEDE"/>
    </g>

    <g transform="translate(450, 190)">
        <rect x="0" y="0" width="16" height="10" fill="#EFEFEF"/>
        <rect x="12" y="-4" width="8" height="8" fill="#EFEFEF"/>
        <rect x="4" y="-4" width="6" height="6" fill="#DEDEDE"/>
    </g>

    <!-- Even smaller geese -->
    <g transform="translate(320, 230)" opacity="0.8">
        <rect x="0" y="0" width="12" height="8" fill="#EFEFEF"/>
        <rect x="9" y="-3" width="6" height="6" fill="#EFEFEF"/>
        <rect x="3" y="-3" width="4" height="4" fill="#DEDEDE"/>
    </g>

    <g transform="translate(480, 230)" opacity="0.8">
        <rect x="0" y="0" width="12" height="8" fill="#EFEFEF"/>
        <rect x="9" y="-3" width="6" height="6" fill="#EFEFEF"/>
        <rect x="3" y="-3" width="4" height="4" fill="#DEDEDE"/>
    </g>

</svg>